<?xml version="1.0" encoding="UTF-8"?>
<svg xmlns="http://www.w3.org/2000/svg" xmlns:xlink="http://www.w3.org/1999/xlink" width="128px" height="128px" viewBox="0 0 128 128" version="1.1">
<g id="surface1">
<path style=" stroke:none;fill-rule:nonzero;fill:rgb(61.176473%,15.294118%,69.01961%);fill-opacity:1;" d="M 110.925781 3.199219 C 101.5 3.199219 93.875 10.824219 93.875 20.25 C 93.875 26.273438 97 31.574219 101.699219 34.601562 L 101.773438 34.648438 L 90.648438 73.625 L 89.601562 73.601562 L 89.574219 73.601562 C 85.75 73.601562 82.199219 74.875 79.375 77 L 79.425781 76.976562 L 58.851562 59.851562 C 59.425781 58.226562 59.75 56.351562 59.75 54.398438 C 59.75 44.976562 52.125 37.351562 42.699219 37.351562 C 33.273438 37.351562 25.648438 44.976562 25.648438 54.398438 C 25.648438 59.175781 27.625 63.5 30.773438 66.601562 L 18.699219 90.75 C 18.175781 90.699219 17.648438 90.675781 17.101562 90.675781 L 17.074219 90.675781 C 7.648438 90.648438 0 98.273438 0 107.726562 C 0 117.175781 7.648438 124.800781 17.074219 124.800781 C 26.5 124.800781 34.148438 117.148438 34.148438 107.726562 C 34.148438 101.925781 31.25 96.773438 26.800781 93.699219 L 26.75 93.675781 L 38.148438 70.875 C 39.5 71.25 41.074219 71.5 42.675781 71.5 C 47.101562 71.5 51.125 69.800781 54.148438 67.050781 L 74.074219 83.648438 C 73.125 85.726562 72.550781 88.148438 72.550781 90.699219 C 72.550781 100.125 80.199219 107.75 89.601562 107.75 C 99.023438 107.75 106.648438 100.125 106.648438 90.699219 C 106.648438 84.675781 103.523438 79.375 98.824219 76.351562 L 98.75 76.300781 L 109.875 37.324219 L 110.925781 37.351562 C 120.351562 37.351562 127.976562 29.699219 127.976562 20.300781 C 128 10.851562 120.375 3.226562 110.925781 3.199219 Z M 17.101562 116.226562 C 12.398438 116.226562 8.574219 112.398438 8.574219 107.699219 C 8.574219 103 12.398438 99.175781 17.101562 99.175781 C 21.800781 99.175781 25.625 103 25.625 107.699219 C 25.625 112.398438 21.824219 116.199219 17.101562 116.226562 Z M 42.699219 62.898438 C 38 62.898438 34.175781 59.074219 34.175781 54.375 C 34.175781 49.675781 38 45.851562 42.699219 45.851562 C 47.398438 45.851562 51.226562 49.675781 51.226562 54.375 C 51.226562 59.074219 47.398438 62.898438 42.699219 62.898438 Z M 89.601562 99.148438 C 84.898438 99.148438 81.074219 95.324219 81.074219 90.625 C 81.074219 85.925781 84.898438 82.101562 89.601562 82.101562 C 94.300781 82.101562 98.125 85.925781 98.125 90.625 C 98.125 95.324219 94.324219 99.148438 89.601562 99.148438 Z M 110.925781 28.800781 C 106.226562 28.800781 102.398438 24.976562 102.398438 20.273438 C 102.398438 15.574219 106.226562 11.75 110.925781 11.75 C 115.625 11.75 119.449219 15.574219 119.449219 20.273438 C 119.449219 24.976562 115.648438 28.773438 110.925781 28.800781 Z M 110.925781 28.800781 "/>
</g>
</svg>
